<svg xmlns="http://www.w3.org/2000/svg" xmlns:xlink="http://www.w3.org/1999/xlink" version="1.1" x="0px" y="0px" viewBox="0 0 33 41.25" enable-background="new 0 0 33 33" xml:space="preserve"><rect x="10.233" y="5.857" width="13.066" height="4.551"/><path d="M27.302,2.191V0.5H6.023c-1.535,0-2.784,1.25-2.784,2.783v26.086c0,0,0,0.551,0,0.85c0,1.258,1.023,2.281,2.281,2.281  h24.241V2.191H27.302z M7.79,2.061h17.953v25.879H7.79V2.061z M28.202,30.941H5.52c-0.397,0-0.721-0.324-0.721-0.723  c0-0.396,0.323-0.719,0.721-0.719h21.782V3.752h0.899V30.941z"/><rect x="10.233" y="13.561" width="13.066" height="1.041"/><rect x="10.233" y="17.07" width="13.066" height="1.041"/><rect x="10.233" y="20.582" width="6.533" height="1.039"/><text x="0" y="48" fill="#000000" font-size="5px" font-weight="bold" font-family="'Helvetica Neue', Helvetica, Arial-Unicode, Arial, Sans-serif">Created by Thuy Nguyen</text><text x="0" y="53" fill="#000000" font-size="5px" font-weight="bold" font-family="'Helvetica Neue', Helvetica, Arial-Unicode, Arial, Sans-serif">from the Noun Project</text></svg>